<svg width="64" height="64" viewBox="0 0 64 64" fill="none" xmlns="http://www.w3.org/2000/svg">
<path d="M48.8301 12.5498V48.5498C48.8301 51.8598 46.1401 54.5498 42.8301 54.5498H20.8301C17.5201 54.5498 14.8301 51.8598 14.8301 48.5498V12.5498" stroke="currentColor" stroke-width="2" stroke-miterlimit="10" stroke-linecap="round"/>
<path d="M33.8301 18.5498H29.8301V26.5498H33.8301V18.5498Z" stroke="currentColor" stroke-width="2" stroke-miterlimit="10" stroke-linecap="round"/>
<path d="M33.8301 32.5498H29.8301V40.5498H33.8301V32.5498Z" stroke="currentColor" stroke-width="2" stroke-miterlimit="10" stroke-linecap="round"/>
<path d="M24.8301 18.5498H20.8301V26.5498H24.8301V18.5498Z" stroke="currentColor" stroke-width="2" stroke-miterlimit="10" stroke-linecap="round"/>
<path d="M42.8301 18.5498H38.8301V26.5498H42.8301V18.5498Z" stroke="currentColor" stroke-width="2" stroke-miterlimit="10" stroke-linecap="round"/>
<path d="M24.8301 32.5498H20.8301V40.5498H24.8301V32.5498Z" stroke="currentColor" stroke-width="2" stroke-miterlimit="10" stroke-linecap="round"/>
<path d="M42.8301 32.5498H38.8301V40.5498H42.8301V32.5498Z" stroke="currentColor" stroke-width="2" stroke-miterlimit="10" stroke-linecap="round"/>
<path d="M27.8301 54.5498V46.5498H35.8301V54.5498" stroke="currentColor" stroke-width="2" stroke-miterlimit="10" stroke-linecap="round"/>
<path d="M50.8301 8.5498H12.8301V12.5498H50.8301V8.5498Z" stroke="currentColor" stroke-width="2" stroke-miterlimit="10" stroke-linecap="round"/>
</svg>
