<svg width="64" height="64" viewBox="0 0 64 64" fill="none" xmlns="http://www.w3.org/2000/svg">
<path d="M46.8301 48.5498H16.8301C12.4101 48.5498 8.83008 44.9698 8.83008 40.5498V10.5498H24.8301L28.8301 16.5498H54.8301V40.5498C54.8301 44.9698 51.2501 48.5498 46.8301 48.5498Z" stroke="currentColor" stroke-width="2" stroke-miterlimit="10"/>
<path d="M34.8882 27.8578C34.9613 26.2539 33.5947 25 32 25C30.4052 25 29.0204 26.2661 29.1117 27.8578C29.13 28.1774 29.4313 29.763 29.4313 29.763C29.6808 31.1387 30.5817 32.3043 31.9969 32.3043C33.4121 32.3043 34.2978 31.1569 34.5626 29.763C34.5626 29.763 34.87 28.1774 34.8821 27.8578H34.8882Z" stroke="currentColor" stroke-miterlimit="10"/>
<path d="M39 38.9999H25L25.3348 36.5043C25.4748 35.6886 26.2143 35.1773 27.0239 35.0099L32 34.1304L36.973 35.0038C37.7948 35.1895 38.5222 35.6795 38.6622 36.5012L39 38.9999Z" stroke="currentColor" stroke-miterlimit="10"/>
</svg>
