<svg width="7" height="24" viewBox="0 0 7 24" fill="none" xmlns="http://www.w3.org/2000/svg">
<g id="Icons" clip-path="url(#clip0_64_8108)">
<g id="More - Alt">
<path id="Vector (Stroke)" fill-rule="evenodd" clip-rule="evenodd" d="M3.5 1C2.39543 1 1.5 1.89543 1.5 3C1.5 4.10457 2.39543 5 3.5 5C4.60457 5 5.5 4.10457 5.5 3C5.5 1.89543 4.60457 1 3.5 1ZM0.5 3C0.5 1.34315 1.84315 0 3.5 0C5.15685 0 6.5 1.34315 6.5 3C6.5 4.65685 5.15685 6 3.5 6C1.84315 6 0.5 4.65685 0.5 3Z" fill="currentColor"/>
<path id="Vector (Stroke)_2" fill-rule="evenodd" clip-rule="evenodd" d="M3.5 10C2.39543 10 1.5 10.8954 1.5 12C1.5 13.1046 2.39543 14 3.5 14C4.60457 14 5.5 13.1046 5.5 12C5.5 10.8954 4.60457 10 3.5 10ZM0.5 12C0.5 10.3431 1.84315 9 3.5 9C5.15685 9 6.5 10.3431 6.5 12C6.5 13.6569 5.15685 15 3.5 15C1.84315 15 0.5 13.6569 0.5 12Z" fill="currentColor"/>
<path id="Vector (Stroke)_3" fill-rule="evenodd" clip-rule="evenodd" d="M3.5 19C2.39543 19 1.5 19.8954 1.5 21C1.5 22.1046 2.39543 23 3.5 23C4.60457 23 5.5 22.1046 5.5 21C5.5 19.8954 4.60457 19 3.5 19ZM0.5 21C0.5 19.3431 1.84315 18 3.5 18C5.15685 18 6.5 19.3431 6.5 21C6.5 22.6569 5.15685 24 3.5 24C1.84315 24 0.5 22.6569 0.5 21Z" fill="currentColor"/>
</g>
</g>
<defs>
<clipPath id="clip0_64_8108">
<rect width="6" height="24" fill="white" transform="translate(0.5)"/>
</clipPath>
</defs>
</svg>
