<svg width="64" height="64" viewBox="0 0 64 64" fill="none" xmlns="http://www.w3.org/2000/svg">
<path d="M31.8301 38.5508C35.6961 38.5508 38.8301 35.4168 38.8301 31.5508C38.8301 27.6848 35.6961 24.5508 31.8301 24.5508C27.9641 24.5508 24.8301 27.6848 24.8301 31.5508C24.8301 35.4168 27.9641 38.5508 31.8301 38.5508Z" stroke="black" stroke-width="2" stroke-miterlimit="10"/>
<path d="M54.8301 34.8503V28.0003L50.8401 27.7103C49.2301 27.5903 47.8301 26.5803 47.2201 25.0903L47.2001 25.0403C46.5801 23.5503 46.8501 21.8403 47.9101 20.6203L50.5301 17.5903L45.6901 12.7503L42.6601 15.3703C41.4401 16.4203 39.7301 16.7003 38.2401 16.0803L38.1901 16.0603C36.7001 15.4503 35.6801 14.1003 35.5701 12.5003L35.2801 8.57031H28.4301L28.1401 12.5103C28.0201 14.1203 27.0101 15.4903 25.5201 16.1003C25.5001 16.1003 25.4901 16.1003 25.4701 16.1003C23.9801 16.7203 22.2701 16.4403 21.0501 15.3903L18.0201 12.7703L13.1801 17.6103L15.8001 20.6503C16.8501 21.8703 17.1301 23.5803 16.5101 25.0703L16.4901 25.1203C15.8801 26.6103 14.4701 27.6203 12.8701 27.7403L8.87012 28.0303V34.8803L12.8601 35.1703C14.4701 35.2903 15.8701 36.3003 16.4801 37.7903L16.5001 37.8403C17.1201 39.3303 16.8401 41.0403 15.7901 42.2603L13.1701 45.2903L18.0101 50.1303L21.0401 47.5103C22.2601 46.4603 23.9701 46.1803 25.4601 46.8003L25.5101 46.8203C27.0001 47.4303 28.0101 48.9003 28.1301 50.5103L28.4201 54.5603H35.2701L35.5601 50.5103C35.6801 48.9003 36.6901 47.4703 38.1801 46.8603C38.2001 46.8603 38.2201 46.8303 38.2301 46.8203C39.7201 46.2003 41.4301 46.4703 42.6501 47.5203L45.6801 50.1303L50.5201 45.2803L47.9001 42.2503C46.8501 41.0303 46.5701 39.3203 47.1901 37.8303L47.2101 37.7803C47.8201 36.2903 49.2301 35.2803 50.8301 35.1603L54.8201 34.8703L54.8301 34.8503Z" stroke="black" stroke-width="2" stroke-miterlimit="10"/>
</svg>
