<svg width="64" height="64" viewBox="0 0 64 64" fill="none" xmlns="http://www.w3.org/2000/svg">
<path d="M31.8301 54.5498C37.3419 54.5498 41.8102 44.2524 41.8102 31.5498C41.8102 18.8473 37.3419 8.5498 31.8301 8.5498C26.3183 8.5498 21.8501 18.8473 21.8501 31.5498C21.8501 44.2524 26.3183 54.5498 31.8301 54.5498Z" stroke="black" stroke-width="2" stroke-miterlimit="10"/>
<path d="M36.8532 40.1783C48.1284 33.8742 55.073 24.8363 52.3643 19.9917C49.6556 15.147 38.3193 16.3301 27.0441 22.6342C15.7688 28.9383 8.82427 37.9762 11.533 42.8209C14.2417 47.6655 25.5779 46.4824 36.8532 40.1783Z" stroke="black" stroke-width="2" stroke-miterlimit="10"/>
<path d="M52.2134 43.153C54.9221 38.3083 47.9776 29.2705 36.7023 22.9664C25.4271 16.6623 14.0907 15.4791 11.382 20.3238C8.67333 25.1684 15.6181 34.2063 26.8933 40.5104C38.1686 46.8145 49.5047 47.9976 52.2134 43.153Z" stroke="black" stroke-width="2" stroke-miterlimit="10"/>
<path d="M31.8301 33.5498C32.9346 33.5498 33.8301 32.6544 33.8301 31.5498C33.8301 30.4452 32.9346 29.5498 31.8301 29.5498C30.7255 29.5498 29.8301 30.4452 29.8301 31.5498C29.8301 32.6544 30.7255 33.5498 31.8301 33.5498Z" fill="black"/>
</svg>
