<svg width="64" height="64" viewBox="0 0 64 64" fill="none" xmlns="http://www.w3.org/2000/svg">
<path d="M32 19C34.2091 19 36 17.2091 36 15C36 12.7909 34.2091 11 32 11C29.7909 11 28 12.7909 28 15C28 17.2091 29.7909 19 32 19Z" fill="currentColor"/>
<path d="M32 53C34.2091 53 36 51.2091 36 49C36 46.7909 34.2091 45 32 45C29.7909 45 28 46.7909 28 49C28 51.2091 29.7909 53 32 53Z" fill="currentColor"/>
<path d="M32 36C34.2091 36 36 34.2091 36 32C36 29.7909 34.2091 28 32 28C29.7909 28 28 29.7909 28 32C28 34.2091 29.7909 36 32 36Z" fill="currentColor"/>
</svg>
