<svg width="64" height="64" viewBox="0 0 64 64" fill="none" xmlns="http://www.w3.org/2000/svg">
<path d="M15.8301 15.5498L47.8301 47.5498" stroke="currentColor" stroke-width="2" stroke-miterlimit="10"/>
<path d="M15.8301 47.5498L47.8301 15.5498" stroke="currentColor" stroke-width="2" stroke-miterlimit="10"/>
<path d="M31.8301 17.5498C33.4869 17.5498 34.8301 16.2067 34.8301 14.5498C34.8301 12.893 33.4869 11.5498 31.8301 11.5498C30.1732 11.5498 28.8301 12.893 28.8301 14.5498C28.8301 16.2067 30.1732 17.5498 31.8301 17.5498Z" fill="currentColor"/>
<path d="M31.8301 51.5498C33.4869 51.5498 34.8301 50.2067 34.8301 48.5498C34.8301 46.893 33.4869 45.5498 31.8301 45.5498C30.1732 45.5498 28.8301 46.893 28.8301 48.5498C28.8301 50.2067 30.1732 51.5498 31.8301 51.5498Z" fill="currentColor"/>
<path d="M48.8301 34.5498C50.4869 34.5498 51.8301 33.2067 51.8301 31.5498C51.8301 29.893 50.4869 28.5498 48.8301 28.5498C47.1732 28.5498 45.8301 29.893 45.8301 31.5498C45.8301 33.2067 47.1732 34.5498 48.8301 34.5498Z" fill="currentColor"/>
<path d="M14.8301 34.5498C16.4869 34.5498 17.8301 33.2067 17.8301 31.5498C17.8301 29.893 16.4869 28.5498 14.8301 28.5498C13.1732 28.5498 11.8301 29.893 11.8301 31.5498C11.8301 33.2067 13.1732 34.5498 14.8301 34.5498Z" fill="currentColor"/>
</svg>
