<svg width="64" height="64" viewBox="0 0 64 64" fill="none" xmlns="http://www.w3.org/2000/svg">
<path d="M41.3202 18.9397C41.5602 13.6697 37.0702 9.5498 31.8302 9.5498C26.5902 9.5498 22.0402 13.7097 22.3402 18.9397C22.4002 19.9897 23.3902 25.1997 23.3902 25.1997C24.2102 29.7197 27.1702 33.5498 31.8202 33.5498C36.4702 33.5498 39.3802 29.7797 40.2502 25.1997C40.2502 25.1997 41.2602 19.9897 41.3002 18.9397H41.3202Z" stroke="black" stroke-width="2" stroke-miterlimit="10"/>
<path d="M54.8301 55.5498H8.83008L9.93007 47.3497C10.3901 44.6697 12.8201 42.9897 15.4801 42.4397L31.8301 39.5498L48.1701 42.4198C50.8701 43.0298 53.2601 44.6397 53.7201 47.3397L54.8301 55.5498Z" stroke="black" stroke-width="2" stroke-miterlimit="10"/>
</svg>
