<svg width="64" height="64" viewBox="0 0 64 64" fill="none" xmlns="http://www.w3.org/2000/svg">
<path d="M31.8301 55.5498C44.5326 55.5498 54.8301 45.2524 54.8301 32.5498C54.8301 19.8473 44.5326 9.5498 31.8301 9.5498C19.1275 9.5498 8.83008 19.8473 8.83008 32.5498C8.83008 45.2524 19.1275 55.5498 31.8301 55.5498Z" stroke="black" stroke-width="2" stroke-miterlimit="10"/>
<path d="M38.8301 22.5897C39.0001 18.6397 35.7001 15.5498 31.8401 15.5498C27.9801 15.5498 24.6301 18.6697 24.8501 22.5897C24.8901 23.3797 25.6301 27.2898 25.6301 27.2898C26.2301 30.6798 28.4101 33.5498 31.8401 33.5498C35.2701 33.5498 37.4101 30.7198 38.0501 27.2898C38.0501 27.2898 38.7901 23.3797 38.8301 22.5897Z" stroke="black" stroke-width="2" stroke-miterlimit="10"/>
<path d="M14.8301 48.0498V47.3798C14.8301 44.2498 17.1501 41.9997 20.2201 41.2297L31.8301 39.0498L43.4801 41.2197C46.4601 42.1497 48.8301 44.2398 48.8301 47.3698V48.0498" stroke="black" stroke-width="2" stroke-miterlimit="10"/>
</svg>
