<svg width="64" height="64" viewBox="0 0 64 64" fill="none" xmlns="http://www.w3.org/2000/svg">
<path d="M54.8301 55.5494H8.83008L10.0501 47.5494C10.5701 43.9094 13.4001 41.0393 17.0401 40.4693L22.6301 39.5893C24.6201 39.3293 26.4301 39.4893 27.9601 40.6193L31.8401 43.4893L35.6701 40.6093C37.2101 39.4493 39.1001 39.3294 41.0701 39.5494L46.6601 40.4493C50.2801 41.0293 53.1001 43.8993 53.6201 47.5293L54.8401 55.5494H54.8301Z" stroke="currentColor" stroke-width="2" stroke-miterlimit="10"/>
<path d="M40.8301 19.5498C40.8301 14.0598 37.2601 9.5498 31.8301 9.5498C26.4001 9.5498 22.8301 14.0598 22.8301 19.5498C22.8301 22.1598 23.2401 30.5498 16.8301 30.5498V31.5498C19.2001 32.3398 26.3601 33.5498 31.8301 33.5498C37.3001 33.5498 44.4701 32.3398 46.8301 31.5498V30.5498C40.6201 30.5498 40.8301 21.5098 40.8301 19.5498Z" stroke="currentColor" stroke-width="2" stroke-miterlimit="10"/>
</svg>
