<svg width="64" height="64" viewBox="0 0 64 64" fill="none" xmlns="http://www.w3.org/2000/svg">
<path d="M50.4302 24.6896L54.8302 17.0796L52.8503 15.1096L47.5202 20.4296L43.2603 16.1796L48.5903 10.8596L46.2803 8.55957L38.8503 13.1796C37.0303 14.3096 35.9502 16.3295 36.0202 18.4695L36.1303 21.8896L10.2503 47.7195C8.68025 49.2895 8.68025 51.8196 10.2503 53.3896C11.8203 54.9596 14.3602 54.9596 15.9302 53.3896L41.8103 27.5596L44.9302 27.6996C47.1802 27.7996 49.3002 26.6496 50.4302 24.6996V24.6896Z" stroke="currentColor" stroke-width="2" stroke-miterlimit="10"/>
<path d="M47.1202 53.2293L37.2402 43.4493L43.6302 37.0693L53.5103 46.8493C55.2703 48.6093 55.2703 51.4693 53.5103 53.2293C51.7503 54.9893 48.8802 54.9893 47.1202 53.2293Z" stroke="currentColor" stroke-width="2" stroke-miterlimit="10"/>
<path d="M30.8401 27.1495L27.2901 30.6995L17.0001 20.4195L11.3201 18.9995L8.83008 10.8495L10.9601 8.72949L19.4801 10.8495L20.5501 16.8795L30.8401 27.1495Z" stroke="currentColor" stroke-width="2" stroke-miterlimit="10"/>
<path d="M38.6502 42.0397L32.9702 36.3698L36.8802 32.4697L42.5602 38.1398L38.6502 42.0397Z" stroke="currentColor" stroke-width="2" stroke-miterlimit="10"/>
</svg>
